<svg width="250" height="250" viewBox="0 0 250 250" fill="none" xmlns="http://www.w3.org/2000/svg">
<path d="M124.984 2.60205C55.9688 2.60205 0 58.7895 0 128.102C0 183.54 35.8125 230.571 85.5 247.18C91.75 248.336 94.0313 244.461 94.0313 241.133C94.0313 238.149 93.9219 230.258 93.8594 219.79C59.0938 227.368 51.75 202.961 51.75 202.961C46.0781 188.461 37.875 184.602 37.875 184.602C26.5156 176.821 38.7187 176.977 38.7187 176.977C51.2656 177.868 57.8594 189.915 57.8594 189.915C69.0156 209.086 87.125 203.555 94.25 200.336C95.375 192.227 98.6094 186.696 102.187 183.555C74.4375 180.383 45.25 169.618 45.25 121.54C45.25 107.836 50.125 96.6333 58.125 87.8521C56.8281 84.6802 52.5469 71.9145 59.3438 54.6489C59.3438 54.6489 69.8438 51.2739 93.7188 67.5083C103.688 64.7271 114.375 63.3364 125.016 63.2895C135.625 63.352 146.328 64.7271 156.312 67.5239C180.172 51.2896 190.656 54.6645 190.656 54.6645C197.469 71.9458 193.187 84.6958 191.906 87.8677C199.922 96.6489 204.75 107.852 204.75 121.555C204.75 169.758 175.531 180.368 147.687 183.477C152.172 187.352 156.172 195.008 156.172 206.711C156.172 223.493 156.016 237.024 156.016 241.133C156.016 244.493 158.266 248.399 164.609 247.165C214.219 230.54 250 183.524 250 128.102C250 58.7895 194.031 2.60205 124.984 2.60205Z" fill="#E0664E"/>
</svg>