<svg width="250" height="250" viewBox="0 0 250 250" fill="none" xmlns="http://www.w3.org/2000/svg">
<path d="M98.2452 248.862C72.5807 244.934 47.2339 235.673 32.0981 224.693C16.1933 213.155 5.01748 197.343 1.67283 181.646C-0.544417 171.24 -0.559991 151.653 1.64077 141.328C5.95518 121.085 22.1281 102.598 45.6906 90.977C52.9673 87.388 54.3604 86.2348 53.8982 84.183C51.7409 74.6077 44.8188 34.0483 44.8188 30.9838C44.8188 20.5143 53.4871 7.48918 63.6015 2.76104C76.096 -3.07979 93.2359 0.638931 102.286 11.1542C109.225 19.2159 110.388 24.9327 110.388 50.9903V73.567L124.958 73.4166L139.529 73.2663V48.5869C139.529 26.3975 139.774 23.4055 141.951 18.9318C154.077 -5.97888 190.526 -5.93538 201.618 19.0031C205.786 28.373 205.682 33.1218 200.707 60.5665C196.674 82.8171 196.285 86.4535 197.838 87.3683C198.826 87.9504 204.158 90.9913 209.687 94.1258C228.82 104.973 242.628 120.339 247.585 136.3C249.58 142.724 250.02 147.488 249.999 162.443C249.977 178.566 249.632 181.693 247.091 188.853C236.596 218.426 200.883 241.411 154.662 248.339C141.609 250.295 109.555 250.593 98.2452 248.862V248.862ZM153.529 239.935C175.671 236.363 192.55 230.233 208.825 219.85C225.768 209.041 238.006 192.59 239.863 178.128L240.614 172.279L235.789 179.524C226.36 193.681 212.403 204.522 192.762 212.943C128.261 240.598 36.422 221.41 13.8486 175.563C12.0821 171.975 10.3388 169.336 9.9745 169.698C8.49815 171.166 11.1667 183.864 14.3519 190.527C26.0319 214.96 56.26 233.294 95.8167 239.936C108.629 242.088 140.187 242.087 153.529 239.935V239.935ZM86.5307 165.799C97.8626 155.886 92.9461 129.41 79.7734 129.41C72.1152 129.41 66.675 137.511 66.675 148.915C66.675 164.081 77.7391 173.49 86.5307 165.799ZM176.431 165.797C177.694 164.712 179.731 161.652 180.958 158.995C186.659 146.649 180.207 129.41 169.885 129.41C157.472 129.41 151.758 153.544 161.66 164.151C166.66 169.507 171.481 170.044 176.431 165.796V165.797Z" fill="#E0664E"/>
</svg>