<?xml version="1.0" encoding="UTF-8"?>
<svg xmlns="http://www.w3.org/2000/svg" xmlns:xlink="http://www.w3.org/1999/xlink" viewBox="0 0 250 250" width="250px" height="250px">
<g id="surface29432927">
<path style=" stroke:none;fill-rule:nonzero;fill:rgb(87.8%,40%,30.6%);fill-opacity:1;" d="M 230.683594 32.761719 C 226.933594 29.578125 221.046875 29.125 214.953125 31.570312 L 214.945312 31.570312 C 208.539062 34.140625 33.640625 109.160156 26.519531 112.226562 C 25.226562 112.675781 13.914062 116.894531 15.078125 126.296875 C 16.121094 134.769531 25.210938 138.28125 26.320312 138.683594 L 70.785156 153.910156 C 73.734375 163.730469 84.609375 199.960938 87.015625 207.699219 C 88.515625 212.523438 90.960938 218.863281 95.246094 220.171875 C 99.003906 221.621094 102.746094 220.296875 105.164062 218.394531 L 132.351562 193.179688 L 176.234375 227.40625 L 177.28125 228.03125 C 180.261719 229.351562 183.113281 230.011719 185.839844 230.011719 C 187.945312 230.011719 189.964844 229.613281 191.894531 228.824219 C 198.46875 226.125 201.101562 219.859375 201.375 219.148438 L 234.15625 48.765625 C 236.15625 39.664062 233.375 35.035156 230.683594 32.761719 Z M 110 160 L 95 200 L 80 150 L 195 65 Z M 110 160 "/>
</g>
</svg>
